<svg width="38" height="32" viewBox="0 0 38 32" fill="none" xmlns="http://www.w3.org/2000/svg">
    <line x1="17.969" y1="15.7519" x2="25.969" y2="14.7519" stroke="#610000" stroke-width="0.5"/>
    <line x1="10.8232" y1="21.8232" x2="13.8232" y2="18.8232" stroke="#610000" stroke-width="0.5"/>
    <line x1="13.85" y1="14.2" x2="9.85" y2="11.2" stroke="#610000" stroke-width="0.5"/>
    <circle cx="8" cy="26" r="6" fill="#0C8AC4"/>
    <path d="M9.1894 25.0675C9.0955 25.2458 8.52826 25.3308 8.19198 25.3441C8.13945 25.4999 8.10801 25.541 8.10022 25.595C8.11032 25.724 8.18599 25.9704 8.44169 26.2863C8.65502 26.4631 9.11979 26.6801 9.06573 27.0164C9.04399 27.1517 8.9913 27.3516 8.73685 27.6895C8.41511 28.1167 7.95465 28.7084 8.0036 29.0136C8.03112 29.1851 8.06075 29.3673 8.16323 29.4583C8.37816 29.6493 8.66251 30.0124 9.18979 29.7419C9.35446 29.6575 9.33307 29.055 9.61076 28.9834C9.67155 28.9677 9.76204 28.9564 9.81324 29.0184C10.0392 29.2919 10.1956 29.8373 10.4444 29.971C10.4966 29.999 10.5566 30.0069 10.617 29.994C10.7385 29.968 10.8702 29.9118 10.9217 29.7733C10.9726 29.6364 10.7805 28.6248 11.1221 28.3018C11.2178 28.2114 11.3525 28.126 11.3514 27.98C11.3483 27.5829 11.1626 26.6239 11.4646 25.8272C11.595 25.483 11.8428 25.2817 11.9416 24.9873C11.9834 24.8628 12.0243 24.6417 11.9825 24.388C11.9554 24.2232 11.9215 24.0442 11.8027 24.0212C11.6565 23.9929 11.5052 23.9831 11.4043 24.0555C11.2967 24.1326 11.232 24.3639 11.1205 24.3473C11.0335 24.3344 10.8906 24.1191 10.6301 24.1233C10.2127 24.1301 9.96266 24.0736 9.74196 24.2193C9.54025 24.3525 9.41217 24.6444 9.1894 25.0675Z"
          fill="#1BAA2A"/>
    <path d="M8.10391 25.346C8.41752 25.346 9.08668 25.2626 9.1894 25.0675C9.41217 24.6444 9.54025 24.3525 9.74196 24.2193C9.96266 24.0736 10.2127 24.1301 10.6301 24.1233C10.8906 24.1191 11.0335 24.3344 11.1205 24.3473C11.232 24.3639 11.2967 24.1326 11.4043 24.0555C11.5052 23.9831 11.6565 23.9929 11.8027 24.0212C11.9215 24.0442 11.9554 24.2232 11.9825 24.388C12.0243 24.6417 11.9834 24.8628 11.9416 24.9873C11.8428 25.2817 11.595 25.483 11.4646 25.8272C11.1626 26.6239 11.3483 27.5829 11.3514 27.98C11.3525 28.126 11.2178 28.2114 11.1221 28.3018C10.7805 28.6248 10.9726 29.6364 10.9217 29.7733C10.8702 29.9118 10.7385 29.968 10.617 29.994C10.5566 30.0069 10.4966 29.999 10.4444 29.971C10.1956 29.8373 10.0392 29.2919 9.81324 29.0184C9.76204 28.9564 9.67155 28.9677 9.61076 28.9834C9.33307 29.055 9.35446 29.6575 9.18979 29.7419C8.66251 30.0124 8.37816 29.6493 8.16323 29.4583C8.06075 29.3673 8.03112 29.1851 8.0036 29.0136C7.95465 28.7084 8.41511 28.1167 8.73685 27.6895C8.9913 27.3516 9.04399 27.1517 9.06573 27.0164C9.11979 26.6801 8.65502 26.4631 8.44169 26.2863C8.18599 25.9704 8.11032 25.724 8.10022 25.595C8.1086 25.5369 8.14441 25.4937 8.20443 25.3062"
          stroke="#1BAA2A" stroke-linecap="round"/>
    <path d="M4.93265 22.5388C4.72781 22.5743 4.35877 22.5689 4.27472 22.5689C4.27472 22.5381 4.24579 22.5629 4.24701 22.5678C4.25061 22.6111 4.22717 22.6698 4.18396 22.7123C4.15279 22.9072 4.16544 23.2258 4.23713 23.3333C4.30251 23.4313 4.41318 23.531 4.37797 23.6734C4.3383 23.8337 4.29666 24.0217 4.17432 24.1014C3.96355 24.2386 3.62918 24.3884 3.54751 24.5054C3.37773 24.7487 2.99334 25.2685 3.00009 25.6723C3.01014 26.2739 3.01413 26.4633 3.12588 26.5574C3.2634 26.6732 3.38862 26.7658 3.42235 26.9172C3.46498 27.1087 3.4329 27.6876 3.56306 28.1157C3.67061 28.4695 3.79689 28.7412 3.93355 28.8044C4.14443 28.902 4.4017 29.07 4.75408 28.9686C4.9772 28.9044 5.27397 28.7564 5.38465 28.5525C5.4166 28.4937 5.4705 28.3338 5.40993 28.1162C5.32644 27.8162 4.96183 27.5082 4.90941 27.2807C4.86877 27.1043 4.83011 26.7957 4.9135 26.6667C4.97573 26.5705 5.45164 26.4621 5.58309 26.1283C5.63839 25.9878 5.62551 25.6951 5.70806 25.4089C5.75055 25.2616 5.72288 25.057 5.95385 24.8905C6.35177 24.6037 6.83818 24.3916 7.0356 24.2325C7.16736 24.1264 7.45683 23.8594 7.72535 23.473C7.89169 23.2336 8.00649 23.0876 7.99972 22.9336C7.98133 22.5156 7.92763 22.2506 7.83145 22.1706C7.78503 22.1321 7.72749 22.0791 7.64333 22.0805C7.45227 22.0838 7.32736 22.1893 7.16506 22.2339L7.15897 22.2355C6.98978 22.282 6.55407 22.4017 6.442 22.2471C6.39512 22.1825 6.37816 22.013 6.21815 22.0027C6.07978 21.9938 5.80646 22.0001 5.57262 22.1321C5.35888 22.2527 5.13796 22.5032 4.93265 22.5388Z"
          fill="#1BAA2A" stroke="#1BAA2A" stroke-linecap="round"/>
    <circle cx="7.07107" cy="7.07108" r="5" transform="rotate(-45 7.07107 7.07108)" fill="#0C8AC4"/>
    <path d="M7.83109 5.99376C7.89678 6.1064 7.79748 6.29072 7.72005 6.38143C7.78481 6.47246 7.79753 6.50089 7.82256 6.52982C7.88956 6.59177 8.03168 6.69605 8.25357 6.79009C8.39529 6.82515 8.61998 6.81746 8.77463 6.99913C8.83683 7.07221 8.92361 7.18533 9.02894 7.41789C9.16213 7.71195 9.34288 8.12292 9.50768 8.26325C9.60031 8.34212 9.69883 8.42582 9.76997 8.44573C9.91918 8.48748 10.1718 8.59793 10.1684 8.33088C10.1673 8.24748 9.86079 7.95162 9.89438 7.84637C9.90173 7.82333 9.91871 7.79506 9.96251 7.81325C10.1558 7.89355 10.4676 8.12711 10.5966 8.13176C10.6237 8.13274 10.6426 8.12166 10.6512 8.10011C10.6686 8.05673 10.6735 7.99572 10.6171 7.91358C10.5613 7.83241 10.0075 7.37463 9.93144 7.12775C9.91013 7.0586 9.90111 6.98222 9.82783 6.90951C9.62853 6.71174 9.10261 6.27869 8.77973 5.80483C8.64025 5.60011 8.60154 5.4375 8.47906 5.26564C8.42724 5.19293 8.32694 5.07217 8.18963 4.95573C8.10045 4.8801 8.00249 4.79911 7.96127 4.8173C7.91055 4.83968 7.86786 4.87264 7.8788 4.93402C7.89048 4.99949 7.98995 5.13134 7.9538 5.1509C7.92556 5.16619 7.78219 5.09428 7.71919 5.1615C7.6182 5.26924 7.52745 5.30349 7.54514 5.43153C7.56131 5.54855 7.67524 5.72653 7.83109 5.99376Z"
          fill="#1BAA2A"/>
    <path d="M7.69896 6.40438C7.77737 6.32598 7.90295 6.11698 7.83109 5.99376C7.67524 5.72653 7.56131 5.54855 7.54514 5.43153C7.52745 5.30349 7.6182 5.26924 7.71919 5.1615C7.78219 5.09428 7.92556 5.16619 7.9538 5.1509C7.98995 5.13134 7.89048 4.99949 7.8788 4.93402C7.86786 4.87264 7.91055 4.83968 7.96127 4.8173C8.00249 4.79911 8.10045 4.8801 8.18963 4.95573C8.32694 5.07217 8.42724 5.19293 8.47906 5.26564C8.60154 5.4375 8.64025 5.60011 8.77973 5.80483C9.10261 6.27869 9.62853 6.71174 9.82783 6.90951C9.90111 6.98222 9.91013 7.0586 9.93144 7.12775C10.0075 7.37463 10.5613 7.83241 10.6171 7.91358C10.6735 7.99572 10.6686 8.05673 10.6512 8.10011C10.6426 8.12166 10.6237 8.13274 10.5966 8.13176C10.4676 8.12711 10.1558 7.89355 9.96251 7.81325C9.91871 7.79506 9.90173 7.82333 9.89438 7.84637C9.86079 7.95162 10.1673 8.24748 10.1684 8.33088C10.1718 8.59793 9.91918 8.48748 9.76997 8.44573C9.69883 8.42582 9.60031 8.34212 9.50768 8.26325C9.34288 8.12292 9.16213 7.71195 9.02894 7.41789C8.92361 7.18533 8.83683 7.07221 8.77463 6.99913C8.61998 6.81746 8.39529 6.82515 8.25357 6.79009C8.03168 6.69605 7.88956 6.59177 7.82256 6.52982C7.79561 6.49867 7.78294 6.4681 7.7042 6.35936"
          stroke="#1BAA2A" stroke-linecap="round"/>
    <path d="M3.27811 6.59866C3.19746 6.72134 3.01106 6.90128 2.96934 6.94299C2.95113 6.92478 2.95144 6.95381 2.95494 6.95609C2.98237 6.97995 3.00549 7.02634 3.00917 7.07291C3.10907 7.20376 3.30386 7.38599 3.40306 7.41403C3.49354 7.4396 3.60749 7.4437 3.67424 7.5454C3.74946 7.66 3.84003 7.7919 3.82646 7.89977C3.80307 8.0856 3.72578 8.34023 3.75449 8.45001C3.8142 8.67825 3.93104 9.17667 4.17338 9.41231C4.5344 9.76335 4.64847 9.87346 4.75962 9.87368C4.8964 9.87394 5.01333 9.86657 5.11971 9.93948C5.2542 10.0316 5.58086 10.3902 5.89884 10.5789C6.16158 10.7349 6.38503 10.833 6.49027 10.8026C6.65268 10.7557 6.87981 10.7274 6.99469 10.4925C7.06743 10.3438 7.12718 10.1089 7.06145 9.93332C7.04248 9.88263 6.97459 9.76124 6.81574 9.66252C6.59681 9.52646 6.23351 9.52509 6.07286 9.41648C5.94832 9.33229 5.74652 9.16886 5.71157 9.05112C5.68548 8.96327 5.85756 8.66293 5.72522 8.40011C5.66955 8.28954 5.48991 8.12268 5.36152 7.91235C5.29543 7.80408 5.16063 7.69675 5.17674 7.48358C5.20448 7.11633 5.32036 6.74937 5.32423 6.55727C5.32681 6.42906 5.31246 6.12736 5.21705 5.7654C5.15795 5.54118 5.12855 5.39782 5.03405 5.31004C4.77755 5.07179 4.59401 4.94156 4.49897 4.942C4.4531 4.94221 4.39318 4.93941 4.35227 4.98204C4.25939 5.07882 4.25983 5.20325 4.20565 5.31018L4.20362 5.31418C4.14715 5.42567 4.00172 5.71275 3.85462 5.6769C3.79308 5.6619 3.68435 5.57 3.59885 5.64333C3.52491 5.70675 3.393 5.84615 3.35503 6.04031C3.32032 6.21777 3.35895 6.4757 3.27811 6.59866Z"
          fill="#1BAA2A" stroke="#1BAA2A" stroke-linecap="round"/>
    <circle cx="30.0711" cy="14" r="5" transform="rotate(-45 30.0711 14)" fill="#0C8AC4"/>
    <path d="M30.1626 11.9352C30.2174 12.0795 29.9944 12.3973 29.8416 12.565C29.9035 12.677 29.9115 12.7149 29.9379 12.7487C30.0146 12.8159 30.1882 12.9173 30.4864 12.9718C30.6867 12.9688 31.0293 12.8683 31.1913 13.0818C31.2564 13.1677 31.3428 13.3043 31.4101 13.6141C31.4952 14.0059 31.606 14.5556 31.7996 14.7025C31.9084 14.7851 32.0242 14.8727 32.1239 14.8747C32.3329 14.8788 32.671 14.9459 32.7714 14.5437C32.8027 14.418 32.4564 14.0921 32.5487 13.9197C32.5689 13.882 32.6058 13.8326 32.6648 13.8428C32.9251 13.8877 33.304 14.1175 33.4971 14.0736C33.5377 14.0643 33.5707 14.0401 33.5922 14.0041C33.6357 13.9317 33.6671 13.8376 33.6143 13.7357C33.5622 13.6351 32.9061 13.1621 32.8887 12.8191C32.8838 12.723 32.9003 12.6111 32.8183 12.5302C32.5953 12.31 31.9716 11.8634 31.6709 11.2749C31.541 11.0206 31.5467 10.7902 31.4296 10.5788C31.38 10.4894 31.2761 10.3466 31.1146 10.2248C31.0097 10.1458 30.8937 10.0621 30.8242 10.1059C30.7387 10.1597 30.6612 10.2264 30.6534 10.3148C30.6452 10.4092 30.7435 10.5691 30.6811 10.613C30.6324 10.6472 30.4441 10.5952 30.3223 10.7217C30.1271 10.9244 29.9765 11.0121 29.9526 11.1986C29.9308 11.369 30.0327 11.593 30.1626 11.9352Z"
          fill="#1BAA2A"/>
    <path d="M29.8007 12.608C29.9501 12.4585 30.2225 12.0931 30.1626 11.9352C30.0327 11.593 29.9308 11.369 29.9526 11.1986C29.9765 11.0121 30.1271 10.9244 30.3223 10.7217C30.4441 10.5952 30.6324 10.6472 30.6811 10.613C30.7435 10.5691 30.6452 10.4092 30.6534 10.3148C30.6612 10.2264 30.7387 10.1597 30.8242 10.1059C30.8937 10.0621 31.0097 10.1458 31.1146 10.2248C31.2761 10.3466 31.38 10.4894 31.4296 10.5788C31.5467 10.7902 31.541 11.0206 31.6709 11.2749C31.9716 11.8634 32.5953 12.31 32.8183 12.5302C32.9003 12.6111 32.8838 12.723 32.8887 12.8191C32.9061 13.1621 33.5622 13.6351 33.6143 13.7357C33.6671 13.8376 33.6357 13.9317 33.5922 14.0041C33.5707 14.0401 33.5377 14.0643 33.4971 14.0736C33.304 14.1175 32.9251 13.8877 32.6648 13.8428C32.6058 13.8326 32.5689 13.882 32.5487 13.9197C32.4564 14.0921 32.8027 14.418 32.7714 14.5437C32.671 14.9459 32.3329 14.8788 32.1239 14.8747C32.0242 14.8727 31.9084 14.7851 31.7996 14.7025C31.606 14.5556 31.4952 14.0059 31.4101 13.6141C31.3428 13.3043 31.2564 13.1677 31.1913 13.0818C31.0293 12.8683 30.6867 12.9688 30.4864 12.9718C30.1882 12.9173 30.0146 12.8159 29.9379 12.7487C29.9094 12.7123 29.9024 12.6711 29.8264 12.5379"
          stroke="#1BAA2A" stroke-linecap="round"/>
    <path d="M26.0949 13.5802C26.025 13.6855 25.8644 13.8407 25.8285 13.8766C25.8132 13.8613 25.8131 13.886 25.8161 13.8879C25.8392 13.9079 25.8584 13.9472 25.8611 13.9868C25.9448 14.0972 26.1089 14.2505 26.1931 14.2733C26.2698 14.2942 26.3668 14.2965 26.4227 14.3825C26.4856 14.4793 26.5613 14.5907 26.5487 14.6827C26.5269 14.8412 26.4585 15.0588 26.4818 15.152C26.5304 15.3458 26.6248 15.769 26.8288 15.9672C27.1327 16.2625 27.2287 16.3551 27.3233 16.3542C27.4398 16.353 27.5395 16.3456 27.6293 16.4066C27.7429 16.4837 28.0175 16.7857 28.2863 16.9432C28.5085 17.0734 28.6978 17.1546 28.7877 17.1277C28.9265 17.0861 29.1202 17.0597 29.2204 16.8585C29.2839 16.7311 29.3371 16.5305 29.283 16.3816C29.2673 16.3387 29.2107 16.236 29.0765 16.1535C28.8914 16.0399 28.582 16.0424 28.4463 15.9515C28.3411 15.8811 28.1709 15.744 28.1424 15.644C28.121 15.5695 28.2706 15.312 28.1606 15.0895C28.1143 14.9959 27.963 14.8556 27.8558 14.6778C27.8006 14.5863 27.6869 14.4963 27.7028 14.3146C27.7301 14.0015 27.8326 13.6879 27.8378 13.5242C27.8413 13.415 27.8321 13.1582 27.7546 12.851C27.7065 12.6606 27.6829 12.5388 27.6033 12.4651C27.3873 12.2648 27.2323 12.1557 27.1514 12.1571C27.1123 12.1577 27.0613 12.1559 27.0261 12.1926C26.946 12.276 26.9451 12.382 26.8979 12.4736L26.8961 12.477C26.8469 12.5725 26.7201 12.8185 26.5952 12.7894C26.543 12.7773 26.4513 12.7001 26.3777 12.7634C26.3141 12.8182 26.2004 12.9382 26.1661 13.104C26.1347 13.2554 26.165 13.4747 26.0949 13.5802Z"
          fill="#1BAA2A" stroke="#1BAA2A" stroke-linecap="round"/>
    <circle cx="16" cy="16" r="4" fill="#610000"/>
</svg>
